<svg xmlns="http://www.w3.org/2000/svg" viewBox="0 0 195.54 198.51"><defs><style>.cls-1{fill:#1581ba;}.cls-2{fill:#75bfcb;}.cls-3{fill:#262424;}</style></defs><title>Ресурс 9</title><g id="Слой_2" data-name="Слой 2"><g id="Слой_1-2" data-name="Слой 1"><path class="cls-1" d="M9.54,184.88h6.83a8.78,8.78,0,0,1-1.66,5.34A7.52,7.52,0,0,1,8.59,193a8.17,8.17,0,0,1-8.42-8.37,8.29,8.29,0,0,1,8.49-8.39,7.88,7.88,0,0,1,5.1,1.76,9.2,9.2,0,0,1,2,2.05l-.85.68a7.73,7.73,0,0,0-1.56-1.81,7.32,7.32,0,0,0-12,5.76A7.18,7.18,0,0,0,8.56,192a6.75,6.75,0,0,0,5.66-2.75,7.26,7.26,0,0,0,1.08-3.37H9.54Z"/><path class="cls-1" d="M19.44,182.73h1V184a2.36,2.36,0,0,1,3.24-1.27l-.48.88a1.19,1.19,0,0,0-.74-.19c-2,0-2,2.66-2,3.9v5.34h-1Z"/><path class="cls-1" d="M35.59,187.73a5.22,5.22,0,1,1-5.22-5.22A5.14,5.14,0,0,1,35.59,187.73Zm-1,0a4.2,4.2,0,1,0-4.2,4.29A4.17,4.17,0,0,0,34.57,187.73Z"/><path class="cls-1" d="M39.45,182.73v6a3.85,3.85,0,0,0,.63,2.49,2.84,2.84,0,0,0,4,0,3.86,3.86,0,0,0,.64-2.49v-6h1V189a4.31,4.31,0,0,1-.75,2.73,3.89,3.89,0,0,1-5.66,0,4.32,4.32,0,0,1-.76-2.73v-6.27Z"/><path class="cls-1" d="M50.13,198.51h-1V182.73h1v1.73a4.69,4.69,0,0,1,3.91-2c3,0,4.83,2.24,4.83,5.12S57,193,54,193a4.34,4.34,0,0,1-3.86-2Zm7.71-10.88A3.83,3.83,0,0,0,54,183.44a3.87,3.87,0,0,0-3.91,4.14c0,2.49,1.37,4.44,3.88,4.44S57.84,190.07,57.84,187.63Z"/><path class="cls-1" d="M77.23,187.73A5.22,5.22,0,1,1,72,182.51,5.13,5.13,0,0,1,77.23,187.73Zm-1,0A4.2,4.2,0,1,0,72,192,4.16,4.16,0,0,0,76.21,187.73Z"/><path class="cls-1" d="M81.09,183.66v9h-1v-9H79v-.93h1.12V178c0-2.81,1.44-3.39,2.61-3.39a2.73,2.73,0,0,1,.86.14v.9a2.09,2.09,0,0,0-.76-.12c-.85,0-1.73.37-1.73,2.66v4.54h2.49v.93Z"/><path class="cls-1" d="M104.48,179.73A7.18,7.18,0,0,0,99,177.17,7.4,7.4,0,0,0,99,192a7.54,7.54,0,0,0,5.46-2.46v1.42a8.18,8.18,0,0,1-5.41,2,8.38,8.38,0,1,1,0-16.76,7.9,7.9,0,0,1,5.46,2.12Z"/><path class="cls-1" d="M117.36,187.73a5.22,5.22,0,1,1-5.22-5.22A5.13,5.13,0,0,1,117.36,187.73Zm-1,0a4.2,4.2,0,1,0-4.2,4.29A4.17,4.17,0,0,0,116.34,187.73Z"/><path class="cls-1" d="M120.24,182.73h1V184a2.82,2.82,0,0,1,2.58-1.46,2.73,2.73,0,0,1,2.78,1.8,3.11,3.11,0,0,1,3-1.8,3,3,0,0,1,2.24.83,3.6,3.6,0,0,1,.85,2.71v6.63h-1v-6.63a2.88,2.88,0,0,0-.59-2.05,1.94,1.94,0,0,0-1.48-.56c-2.64,0-2.66,2.63-2.66,3.24v6h-1v-6.39c0-.63,0-2.85-2.19-2.85-1.74,0-2.54,1.51-2.54,3.48v5.76h-1Z"/><path class="cls-1" d="M137.12,198.51h-1V182.73h1v1.73a4.7,4.7,0,0,1,3.91-2c3,0,4.83,2.24,4.83,5.12S144,193,141,193a4.34,4.34,0,0,1-3.86-2Zm7.71-10.88a3.89,3.89,0,1,0-7.75,0c0,2.49,1.36,4.44,3.87,4.44S144.83,190.07,144.83,187.63Z"/><path class="cls-1" d="M156.83,182.73h1v10h-1V190.9a4.53,4.53,0,0,1-3.87,2,4.89,4.89,0,0,1-4.86-5.25c0-3.07,2-5.19,4.86-5.19a4.53,4.53,0,0,1,3.87,2Zm-7.7,4.9c0,2.25,1.39,4.39,3.9,4.39s3.85-2.1,3.85-4.39a3.89,3.89,0,1,0-7.75,0Z"/><path class="cls-1" d="M161.32,182.73h1v1.56a3.32,3.32,0,0,1,3-1.78,3.07,3.07,0,0,1,2.75,1.39,4.78,4.78,0,0,1,.49,2.51v6.27h-1v-6.27a3.75,3.75,0,0,0-.39-2,2.13,2.13,0,0,0-1.95-1,2.61,2.61,0,0,0-2.44,1.39,5.37,5.37,0,0,0-.54,2.68v5.17h-1Z"/><path class="cls-1" d="M171.72,179.41a.88.88,0,1,1,.87.9A.86.86,0,0,1,171.72,179.41Zm1.36,3.32v10h-1v-10Z"/><path class="cls-1" d="M177,187.83a3.93,3.93,0,0,0,4,4.19,3.78,3.78,0,0,0,3.46-2.27l.83.49a4.82,4.82,0,0,1-4.37,2.71c-3.09,0-4.9-2.29-4.9-5.2,0-3.46,2.39-5.24,4.83-5.24,2.68,0,4.81,2.15,4.71,5.32Zm7.49-.93a3.72,3.72,0,0,0-3.68-3.46,3.79,3.79,0,0,0-3.73,3.46Z"/><path class="cls-1" d="M192.82,184.56a1.83,1.83,0,0,0-1.74-1.12A1.6,1.6,0,0,0,189.4,185c0,1,.88,1.32,1.95,1.76a5,5,0,0,1,2.37,1.39,2.42,2.42,0,0,1,.51,1.61A3,3,0,0,1,191,193a3.41,3.41,0,0,1-3.44-2.63l.95-.3a2.54,2.54,0,0,0,2.49,2,2.14,2.14,0,0,0,2.22-2.19c0-1.12-.71-1.54-1.91-2a6,6,0,0,1-2.49-1.44,2.12,2.12,0,0,1-.43-1.29,2.52,2.52,0,0,1,2.65-2.56,2.7,2.7,0,0,1,2.62,1.61Z"/><path class="cls-2" d="M131.19,91.25a19,19,0,1,1,14.39-22.74,19,19,0,0,1-14.39,22.74M112.88,21.47A7.79,7.79,0,1,1,123.31,25a7.8,7.8,0,0,1-10.43-3.55M72.27,57A10.69,10.69,0,1,1,64.93,43.8,10.7,10.7,0,0,1,72.27,57m83.39,9.22a29.29,29.29,0,0,0-16.92-20.47h0c-9.18-5.11-4.87-15.5-3.26-18.69.18-.31.35-.63.51-.95h0a18,18,0,1,0-27.59,5.81h0c.33.28.68.54,1,.8,6.66,5.66,2.54,14.47-.84,17.11h0a29.1,29.1,0,0,0-3,2.83h0c-11.33,9.61-19.8,0-21.61-4.84-.08-.29-.17-.58-.26-.87h0A22.84,22.84,0,1,0,71.21,75h0a23.74,23.74,0,0,0,3.32-1.81C92.05,64.64,98.13,79,99.12,81.81l.14.43v0h0a29.36,29.36,0,0,0,56.39-16"/><path class="cls-3" d="M194.2,143.15a6.12,6.12,0,0,0-6-3.68,5.77,5.77,0,0,0-6.07,5.85,4.8,4.8,0,0,0,1,3c1.11,1.45,3.07,2.17,5.69,3.29s4.35,2.06,4.35,4.63a4.88,4.88,0,0,1-5.08,5,5.81,5.81,0,0,1-5.69-4.57l-2.17.67a7.79,7.79,0,0,0,7.86,6c3.51,0,7.42-2.06,7.42-7.25a5.52,5.52,0,0,0-1.17-3.68c-1.45-1.84-3.57-2.45-5.41-3.17-2.45-1-4.46-1.68-4.46-4a3.66,3.66,0,0,1,3.84-3.62,4.16,4.16,0,0,1,4,2.56Zm-29.83,18.06c-5.74,0-8.86-4.46-8.86-10.14,0-6.3,4.46-9.48,8.92-9.48,4.68,0,8.81,3.34,8.81,9.59,0,5.57-3.13,10-8.87,10m-11-39.14v40.65h2.23v-4.07a9.91,9.91,0,0,0,8.81,4.68c6.91,0,11.15-5.46,11.15-12.15s-4.18-11.71-11-11.71a10.66,10.66,0,0,0-8.92,4.46V122.07Zm-19,19.52c3.91,0,8.87,2.84,8.87,9.59,0,5.24-3.12,10-8.81,10s-8.92-4.9-8.92-10c0-6.19,4.35-9.59,8.86-9.59m8.76,2.34a10.39,10.39,0,0,0-8.87-4.46c-6.63,0-11.09,4.85-11.09,11.87,0,7.48,5.13,12,11.09,12a10.4,10.4,0,0,0,8.87-4.68v4.07h2.23V140h-2.23ZM107,125.53v37.19h12.82v-2.23H109.45v-35Z"/><path class="cls-1" d="M7.71,142.56V131h5.18a7.22,7.22,0,0,1,4.9,1.5,5.4,5.4,0,0,1,1.71,4.29,5,5,0,0,1-1.95,4.24,9.13,9.13,0,0,1-5.62,1.49Zm6.63-17.28H0v37.38H7.71V148.32h5.47q6.88,0,10.4-2.92t3.53-8.57c0-3.73-1.09-6.59-3.29-8.57s-5.36-3-9.48-3m51.36,0H58.07l-10.21,29-10.19-29H29.28l14.11,37.38h8.17Zm0,0Zm13.14,17.28V131H84a7.25,7.25,0,0,1,4.9,1.5,5.4,5.4,0,0,1,1.71,4.29,5,5,0,0,1-2,4.24,9.1,9.1,0,0,1-5.61,1.49Zm6.63-17.28H71.12v37.38h7.72V148.32h5.47q6.87,0,10.39-2.92t3.53-8.57c0-3.73-1.09-6.59-3.29-8.57s-5.36-3-9.47-3M7.71,142.73h4.22a9.32,9.32,0,0,0,5.72-1.52,5.2,5.2,0,0,0,2-4.38,5.59,5.59,0,0,0-1.77-4.42,7.42,7.42,0,0,0-5-1.54H7.71a.17.17,0,0,0-.17.17v11.52a.18.18,0,0,0,.17.17m6.63-17.28c4.06,0,7.21,1,9.36,2.94s3.24,4.77,3.24,8.44-1.17,6.54-3.47,8.44-5.77,2.88-10.29,2.88H7.71a.17.17,0,0,0-.17.17v14.17H.17v-37H14.34Zm51.11,0-14,37H43.51l-14-37h8l10.15,28.9a.17.17,0,0,0,.32,0l10.17-28.9h7.26Zm13.39,17.28h4.22a9.29,9.29,0,0,0,5.71-1.52,5.2,5.2,0,0,0,2-4.38A5.59,5.59,0,0,0,89,132.41a7.41,7.41,0,0,0-5-1.54H78.84a.17.17,0,0,0-.18.17v11.52a.18.18,0,0,0,.18.17m6.63-17.28c4,0,7.2,1,9.35,2.94s3.24,4.77,3.24,8.44-1.17,6.54-3.47,8.44-5.77,2.88-10.28,2.88H78.84a.17.17,0,0,0-.18.17v14.17H71.29v-37H85.47Z"/><path class="cls-1" d="M7.71,131a.09.09,0,0,0-.08.09v11.51a.09.09,0,0,0,.08.09h4.22a9.29,9.29,0,0,0,5.67-1.5,5.14,5.14,0,0,0,2-4.32,5.52,5.52,0,0,0-1.74-4.35,7.32,7.32,0,0,0-5-1.52ZM.09,162.66V125.45H14.34c4.08,0,7.25,1,9.42,3s3.27,4.82,3.27,8.5-1.18,6.6-3.5,8.51-5.81,2.9-10.35,2.9H7.71a.09.09,0,0,0-.08.08v14.26Zm43.3,0-14-37.21h8.27l10.11,29a.09.09,0,0,0,.08.06.1.1,0,0,0,.08-.06l10.21-29,3.73.06h3.69L51.5,162.66ZM78.84,131a.09.09,0,0,0-.09.09v11.51a.09.09,0,0,0,.09.09h4.22a9.28,9.28,0,0,0,5.66-1.5,5.14,5.14,0,0,0,2-4.32A5.48,5.48,0,0,0,89,132.56,7.29,7.29,0,0,0,84,131Zm-7.63,31.62V125.45H85.46c4.08,0,7.25,1,9.42,3s3.27,4.82,3.27,8.5-1.18,6.6-3.5,8.51-5.81,2.9-10.34,2.9H78.84a.09.09,0,0,0-.09.08v14.26Z"/></g></g></svg>