<svg xmlns="http://www.w3.org/2000/svg" viewBox="0 0 383.15 151.19"><defs><style>.cls-1{fill:#75bfcb;}.cls-2{fill:#262424;}.cls-3{fill:#1581ba;}</style></defs><title>Ресурс 8</title><g id="Слой_2" data-name="Слой 2"><g id="Слой_1-2" data-name="Слой 1"><path class="cls-1" d="M93.44,92.64a19.32,19.32,0,1,1,14.61-23.08A19.32,19.32,0,0,1,93.44,92.64M74.85,21.79A7.91,7.91,0,1,1,85.44,25.4a7.91,7.91,0,0,1-10.59-3.61M33.62,57.89a10.85,10.85,0,1,1-7.45-13.42,10.86,10.86,0,0,1,7.45,13.42m84.67,9.36A29.75,29.75,0,0,0,101.1,46.47h0c-9.31-5.19-4.94-15.74-3.31-19,.19-.31.36-.63.52-1h0a18.29,18.29,0,1,0-28,5.9h0c.34.28.69.55,1,.8,6.76,5.75,2.57,14.7-.85,17.38h0a30,30,0,0,0-3.08,2.87h0c-11.5,9.76-20.1,0-21.94-4.91-.08-.3-.17-.59-.27-.88h0A23.18,23.18,0,1,0,32.54,76.11h0a22.87,22.87,0,0,0,3.37-1.83c17.78-8.64,23.95,6,25,8.79l.14.43,0,0h0a29.81,29.81,0,0,0,57.25-16.28"/><path class="cls-2" d="M381.5,87.38a7.54,7.54,0,0,0-7.35-4.54c-4.26,0-7.5,3-7.5,7.22a5.88,5.88,0,0,0,1.24,3.64c1.38,1.79,3.78,2.68,7,4.06s5.37,2.54,5.37,5.7a6,6,0,0,1-6.26,6.19,7.16,7.16,0,0,1-7-5.64l-2.68.83a9.6,9.6,0,0,0,9.69,7.42c4.33,0,9.14-2.54,9.14-8.94a6.72,6.72,0,0,0-1.44-4.53c-1.79-2.27-4.4-3-6.67-3.92-3-1.24-5.5-2.06-5.5-5a4.52,4.52,0,0,1,4.75-4.47,5.14,5.14,0,0,1,4.88,3.16Zm-36.77,22.27c-7.08,0-10.93-5.5-10.93-12.51,0-7.77,5.5-11.69,11-11.69,5.77,0,10.86,4.13,10.86,11.82,0,6.88-3.85,12.38-10.93,12.38M331.19,61.39V111.5h2.75v-5a12.19,12.19,0,0,0,10.86,5.77c8.52,0,13.74-6.74,13.74-15s-5.15-14.43-13.61-14.43a13.18,13.18,0,0,0-11,5.5V61.39ZM307.75,85.45c4.81,0,10.93,3.51,10.93,11.82,0,6.46-3.85,12.38-10.86,12.38s-11-6.05-11-12.38c0-7.63,5.36-11.82,10.93-11.82m10.79,2.89a12.8,12.8,0,0,0-10.93-5.5c-8.18,0-13.68,6-13.68,14.64,0,9.21,6.33,14.78,13.68,14.78a12.81,12.81,0,0,0,10.93-5.77v5h2.75v-28h-2.75ZM274,65.66V111.5h15.81v-2.75H277V65.66Z"/><path class="cls-3" d="M151.59,86.65V72.45H158a8.87,8.87,0,0,1,6,1.85,6.63,6.63,0,0,1,2.11,5.28,6.19,6.19,0,0,1-2.41,5.24c-1.6,1.21-3.91,1.83-6.92,1.83Zm8.18-21.3H142.08v46.08h9.51V93.75h6.75c5.65,0,9.91-1.2,12.81-3.6s4.36-5.91,4.36-10.57-1.35-8.12-4.07-10.56-6.59-3.67-11.67-3.67m63.31,0h-9.4l-12.6,35.77L188.53,65.35H178.18l17.4,46.08h10.07Zm0,0Zm16.2,21.3V72.45h6.38a8.85,8.85,0,0,1,6,1.85,6.63,6.63,0,0,1,2.11,5.28,6.19,6.19,0,0,1-2.41,5.24c-1.6,1.21-3.91,1.83-6.92,1.83Zm8.17-21.3H229.77v46.08h9.51V93.75H246c5.65,0,9.91-1.2,12.82-3.6s4.35-5.91,4.35-10.57-1.35-8.12-4.06-10.56-6.6-3.67-11.68-3.67M151.59,86.86h5.21c3,0,5.41-.63,7-1.87a6.46,6.46,0,0,0,2.49-5.41,6.87,6.87,0,0,0-2.18-5.44A9.14,9.14,0,0,0,158,72.23h-6.39a.22.22,0,0,0-.21.22v14.2a.22.22,0,0,0,.21.21m8.18-21.3c5,0,8.88,1.22,11.53,3.62s4,5.89,4,10.4S173.86,87.65,171,90s-7.11,3.55-12.68,3.55h-6.75a.21.21,0,0,0-.21.21v17.47H142.3V65.56h17.47Zm63,0L205.5,111.22h-9.77L178.48,65.56h9.9l12.51,35.63a.2.2,0,0,0,.19.14.22.22,0,0,0,.2-.14l12.55-35.63h8.94Zm16.51,21.3h5.2c3,0,5.42-.63,7.05-1.87A6.46,6.46,0,0,0,254,79.58a6.86,6.86,0,0,0-2.18-5.44,9.1,9.1,0,0,0-6.18-1.91h-6.38a.22.22,0,0,0-.22.22v14.2a.22.22,0,0,0,.22.21m8.17-21.3c5,0,8.88,1.22,11.53,3.62s4,5.89,4,10.4S261.54,87.65,258.7,90s-7.11,3.55-12.68,3.55h-6.74a.21.21,0,0,0-.22.21v17.47H230V65.56h17.47Z"/><path class="cls-3" d="M151.59,72.45a.1.1,0,0,0-.1.1v14.2a.1.1,0,0,0,.1.11h5.21c3,0,5.37-.62,7-1.85a6.31,6.31,0,0,0,2.45-5.32,6.76,6.76,0,0,0-2.14-5.36A9,9,0,0,0,158,72.45Zm-9.4,39V65.56h17.58c5,0,8.93,1.23,11.6,3.65s4,5.93,4,10.48-1.45,8.13-4.31,10.49-7.16,3.57-12.75,3.57h-6.75a.1.1,0,0,0-.1.1v17.58Zm53.39,0L178.33,65.56h10.2L201,101.26a.12.12,0,0,0,.11.07.12.12,0,0,0,.1-.07l12.59-35.77,4.6.07h4.54l-17.34,45.87Zm43.7-39a.11.11,0,0,0-.11.1v14.2a.11.11,0,0,0,.11.11h5.2c3,0,5.37-.62,7-1.85a6.32,6.32,0,0,0,2.46-5.32,6.73,6.73,0,0,0-2.15-5.36,9,9,0,0,0-6.11-1.88Zm-9.41,39V65.56h17.58c5,0,8.93,1.23,11.6,3.65s4,5.93,4,10.48-1.45,8.13-4.31,10.49-7.16,3.57-12.75,3.57h-6.74a.11.11,0,0,0-.11.1v17.58Z"/><path class="cls-3" d="M153.84,134.38h8.43a10.77,10.77,0,0,1-2.05,6.59,9.3,9.3,0,0,1-7.55,3.37A10.07,10.07,0,0,1,142.3,134a10.22,10.22,0,0,1,10.46-10.35,9.71,9.71,0,0,1,6.29,2.17,11.45,11.45,0,0,1,2.4,2.52l-1,.85a9,9,0,0,0-16.72,4.87,8.85,8.85,0,0,0,9,9,8.32,8.32,0,0,0,7-3.4,9,9,0,0,0,1.32-4.15h-7.1Z"/><path class="cls-3" d="M166.06,131.73h1.21v1.6a2.9,2.9,0,0,1,4-1.57l-.61,1.09a1.39,1.39,0,0,0-.9-.24c-2.46,0-2.49,3.27-2.49,4.81V144h-1.21Z"/><path class="cls-3" d="M186,137.9a6.44,6.44,0,1,1-6.44-6.44A6.34,6.34,0,0,1,186,137.9Zm-1.27,0a5.18,5.18,0,1,0-5.17,5.29A5.14,5.14,0,0,0,184.71,137.9Z"/><path class="cls-3" d="M190.73,131.73v7.4a4.77,4.77,0,0,0,.78,3.07,3.5,3.5,0,0,0,4.88,0,4.77,4.77,0,0,0,.78-3.07v-7.4h1.2v7.73a5.29,5.29,0,0,1-.93,3.37,4.79,4.79,0,0,1-7,0,5.29,5.29,0,0,1-.93-3.37v-7.73Z"/><path class="cls-3" d="M203.91,151.19H202.7V131.73h1.21v2.14a5.74,5.74,0,0,1,4.81-2.41c3.7,0,6,2.77,6,6.32s-2.29,6.56-6,6.56a5.33,5.33,0,0,1-4.75-2.53Zm9.5-13.41c0-3.37-2.22-5.17-4.75-5.17a4.76,4.76,0,0,0-4.81,5.11c0,3.07,1.68,5.47,4.78,5.47S213.41,140.79,213.41,137.78Z"/><path class="cls-3" d="M237.33,137.9a6.44,6.44,0,1,1-6.44-6.44A6.34,6.34,0,0,1,237.33,137.9Zm-1.26,0a5.18,5.18,0,1,0-5.18,5.29A5.14,5.14,0,0,0,236.07,137.9Z"/><path class="cls-3" d="M242.08,132.88V144h-1.2V132.88H239.5v-1.15h1.38V125.9c0-3.46,1.78-4.18,3.22-4.18a3.33,3.33,0,0,1,1.05.18V123a2.33,2.33,0,0,0-.93-.15c-1.05,0-2.14.45-2.14,3.28v5.59h3.07v1.15Z"/><path class="cls-3" d="M270.93,128a8.88,8.88,0,0,0-6.77-3.15,9.13,9.13,0,0,0,0,18.25,9.31,9.31,0,0,0,6.74-3v1.75a10.09,10.09,0,0,1-6.68,2.5,10.34,10.34,0,1,1-.06-20.67,9.78,9.78,0,0,1,6.74,2.62Z"/><path class="cls-3" d="M286.82,137.9a6.44,6.44,0,1,1-6.44-6.44A6.34,6.34,0,0,1,286.82,137.9Zm-1.27,0a5.17,5.17,0,1,0-5.17,5.29A5.14,5.14,0,0,0,285.55,137.9Z"/><path class="cls-3" d="M290.37,131.73h1.2v1.54a3.5,3.5,0,0,1,3.19-1.81,3.39,3.39,0,0,1,3.43,2.23,3.8,3.8,0,0,1,3.64-2.23,3.73,3.73,0,0,1,2.77,1,4.46,4.46,0,0,1,1,3.33V144h-1.2v-8.18a3.55,3.55,0,0,0-.72-2.52,2.47,2.47,0,0,0-1.84-.69c-3.25,0-3.28,3.24-3.28,4V144h-1.2v-7.88c0-.78-.06-3.51-2.71-3.51-2.13,0-3.13,1.86-3.13,4.3V144h-1.2Z"/><path class="cls-3" d="M311.19,151.19H310V131.73h1.2v2.14a5.75,5.75,0,0,1,4.81-2.41c3.7,0,6,2.77,6,6.32s-2.29,6.56-6,6.56a5.33,5.33,0,0,1-4.75-2.53Zm9.5-13.41c0-3.37-2.22-5.17-4.75-5.17a4.76,4.76,0,0,0-4.81,5.11c0,3.07,1.68,5.47,4.78,5.47S320.69,140.79,320.69,137.78Z"/><path class="cls-3" d="M335.5,131.73h1.2V144h-1.2v-2.19a5.63,5.63,0,0,1-4.79,2.53c-3.21,0-6-2.44-6-6.47,0-3.79,2.4-6.41,6-6.41a5.61,5.61,0,0,1,4.79,2.41ZM326,137.78c0,2.77,1.72,5.41,4.81,5.41s4.76-2.58,4.76-5.41a4.8,4.8,0,1,0-9.57,0Z"/><path class="cls-3" d="M341,131.73h1.21v1.93a4.1,4.1,0,0,1,3.76-2.2,3.8,3.8,0,0,1,3.39,1.72,5.8,5.8,0,0,1,.61,3.09V144h-1.21v-7.73a4.54,4.54,0,0,0-.48-2.46,2.6,2.6,0,0,0-2.4-1.2,3.23,3.23,0,0,0-3,1.71,6.69,6.69,0,0,0-.66,3.31V144H341Z"/><path class="cls-3" d="M353.85,127.64a1.08,1.08,0,1,1,1.08,1.12A1.06,1.06,0,0,1,353.85,127.64Zm1.68,4.09V144h-1.2V131.73Z"/><path class="cls-3" d="M360.35,138a4.83,4.83,0,0,0,4.87,5.17,4.69,4.69,0,0,0,4.27-2.79l1,.6a5.93,5.93,0,0,1-5.38,3.34c-3.82,0-6.05-2.83-6.05-6.41,0-4.27,2.95-6.47,6-6.47,3.31,0,5.92,2.65,5.8,6.56Zm9.23-1.14a4.6,4.6,0,0,0-4.54-4.27,4.68,4.68,0,0,0-4.6,4.27Z"/><path class="cls-3" d="M379.87,134a2.24,2.24,0,0,0-2.14-1.38,2,2,0,0,0-2.07,1.95c0,1.26,1.08,1.62,2.41,2.17a6.2,6.2,0,0,1,2.91,1.71,3,3,0,0,1,.63,2,3.75,3.75,0,0,1-4,3.91,4.21,4.21,0,0,1-4.24-3.25l1.18-.36a3.12,3.12,0,0,0,3.06,2.46,2.63,2.63,0,0,0,2.74-2.7c0-1.39-.87-1.9-2.34-2.5s-2.47-1-3.07-1.77a2.62,2.62,0,0,1-.54-1.6,3.11,3.11,0,0,1,3.27-3.16,3.29,3.29,0,0,1,3.22,2Z"/></g></g></svg>