<svg width="102" height="40" viewBox="0 0 102 40" fill="none" xmlns="http://www.w3.org/2000/svg">
<g clip-path="url(#clip0_120_5)">
<path d="M7.524 14.722H4.77V25H2.934V14.722H0.18V12.994H7.524V14.722ZM16.9103 25L15.6503 22.102H10.5203L9.2063 25H7.2263L13.2023 12.292L18.8903 25H16.9103ZM11.2763 20.374H14.9123L13.1303 16.306L11.2763 20.374ZM20.4068 12.994H23.0528C23.7908 12.994 24.8168 13.066 25.6808 13.642C26.6888 14.308 27.1748 15.46 27.1748 16.558C27.1748 17.26 26.9948 18.34 26.0048 19.186C25.0508 19.996 23.9528 20.122 23.0708 20.122H22.2428V25H20.4068V12.994ZM22.2428 14.686V18.43H23.0708C24.6548 18.43 25.4108 17.656 25.4108 16.54C25.4108 15.874 25.1408 14.686 23.0528 14.686H22.2428ZM30.8912 12.994V17.674H36.0392V12.994H37.8752V25H36.0392V19.402H30.8912V25H29.0552V12.994H30.8912ZM49.0783 25L47.8183 22.102H42.6883L41.3743 25H39.3943L45.3703 12.292L51.0583 25H49.0783ZM43.4443 20.374H47.0803L45.2983 16.306L43.4443 20.374ZM52.5748 12.994H54.4108V23.272H57.9388V25H52.5748V12.994ZM65.3238 20.446V18.754H70.2738V19.132C70.2738 20.23 70.1658 21.688 69.2118 23.002C68.5998 23.848 67.1598 25.234 64.6758 25.234C62.7678 25.234 61.4178 24.532 60.3738 23.488C59.1138 22.228 58.5378 20.716 58.5378 19.006C58.5378 17.728 58.8798 16.036 60.2478 14.614C61.6878 13.12 63.4338 12.778 64.7838 12.778C66.4038 12.778 67.5378 13.282 68.4378 13.93C68.9778 14.308 69.3738 14.704 69.7518 15.208L68.4558 16.45C67.6818 15.334 66.4578 14.47 64.7838 14.47C62.2458 14.47 60.3738 16.396 60.3738 19.024C60.3738 21.58 62.2278 23.542 64.7298 23.542C66.6558 23.542 68.0238 22.21 68.3118 20.446H65.3238ZM72.5787 12.994H74.4147V25H72.5787V12.994ZM79.1256 25H77.2896V12.184L86.0016 21.31V12.994H87.8376V25.738L79.1256 16.612V25Z" fill="#41BFC4"/>
<path d="M89.8765 13.004C89.8765 10.616 91.6285 8.84 94.0285 8.84C96.4285 8.84 98.1805 10.616 98.1805 13.004C98.1805 15.392 96.4285 17.168 94.0285 17.168C91.6285 17.168 89.8765 15.392 89.8765 13.004ZM97.5085 13.004C97.5085 11.012 96.0565 9.44 94.0285 9.44C92.0005 9.44 90.5485 11.012 90.5485 13.004C90.5485 15.008 92.0125 16.568 94.0285 16.568C96.0445 16.568 97.5085 15.008 97.5085 13.004ZM96.0565 15.164H95.0125L93.6205 13.388V15.164H92.7685V10.676H93.9565C95.3845 10.676 95.5645 11.588 95.5645 12.02C95.5645 12.68 95.1685 13.136 94.5685 13.292L96.0565 15.164ZM93.6205 11.432V12.68H93.7885C94.4125 12.68 94.7245 12.428 94.7245 12.044C94.7245 11.468 94.1245 11.432 93.8125 11.432H93.6205Z" fill="#41BFC4"/>
</g>
<defs>
<clipPath id="clip0_120_5">
<rect width="102" height="40" fill="white"/>
</clipPath>
</defs>
</svg>
