<svg width="102" height="40" viewBox="0 0 102 40" fill="none" xmlns="http://www.w3.org/2000/svg">
<g clip-path="url(#clip0_120_5)">
<path d="M7.524 14.722H4.77V25H2.934V14.722H0.18V12.994H7.524V14.722ZM16.9103 25L15.6503 22.102H10.5203L9.2063 25H7.2263L13.2023 12.292L18.8903 25H16.9103ZM11.2763 20.374H14.9123L13.1303 16.306L11.2763 20.374ZM20.4068 12.994H23.0528C23.7908 12.994 24.8168 13.066 25.6808 13.642C26.6888 14.308 27.1748 15.46 27.1748 16.558C27.1748 17.26 26.9948 18.34 26.0048 19.186C25.0508 19.996 23.9528 20.122 23.0708 20.122H22.2428V25H20.4068V12.994ZM22.2428 14.686V18.43H23.0708C24.6548 18.43 25.4108 17.656 25.4108 16.54C25.4108 15.874 25.1408 14.686 23.0528 14.686H22.2428ZM30.8912 12.994V17.674H36.0392V12.994H37.8752V25H36.0392V19.402H30.8912V25H29.0552V12.994H30.8912ZM49.0783 25L47.8183 22.102H42.6883L41.3743 25H39.3943L45.3703 12.292L51.0583 25H49.0783ZM43.4443 20.374H47.0803L45.2983 16.306L43.4443 20.374ZM52.5748 12.994H54.4108V23.272H57.9388V25H52.5748V12.994ZM65.3238 20.446V18.754H70.2738V19.132C70.2738 20.23 70.1658 21.688 69.2118 23.002C68.5998 23.848 67.1598 25.234 64.6758 25.234C62.7678 25.234 61.4178 24.532 60.3738 23.488C59.1138 22.228 58.5378 20.716 58.5378 19.006C58.5378 17.728 58.8798 16.036 60.2478 14.614C61.6878 13.12 63.4338 12.778 64.7838 12.778C66.4038 12.778 67.5378 13.282 68.4378 13.93C68.9778 14.308 69.3738 14.704 69.7518 15.208L68.4558 16.45C67.6818 15.334 66.4578 14.47 64.7838 14.47C62.2458 14.47 60.3738 16.396 60.3738 19.024C60.3738 21.58 62.2278 23.542 64.7298 23.542C66.6558 23.542 68.0238 22.21 68.3118 20.446H65.3238ZM72.5787 12.994H74.4147V25H72.5787V12.994ZM79.1256 25H77.2896V12.184L86.0016 21.31V12.994H87.8376V25.738L79.1256 16.612V25Z" fill="#41BFC4"/>
<path d="M92.8765 12.004C92.8765 9.616 94.6285 7.84 97.0285 7.84C99.4285 7.84 101.18 9.616 101.18 12.004C101.18 14.392 99.4285 16.168 97.0285 16.168C94.6285 16.168 92.8765 14.392 92.8765 12.004ZM100.508 12.004C100.508 10.012 99.0565 8.44 97.0285 8.44C95.0005 8.44 93.5485 10.012 93.5485 12.004C93.5485 14.008 95.0125 15.568 97.0285 15.568C99.0445 15.568 100.508 14.008 100.508 12.004ZM99.0565 14.164H98.0125L96.6205 12.388V14.164H95.7685V9.676H96.9565C98.3845 9.676 98.5645 10.588 98.5645 11.02C98.5645 11.68 98.1685 12.136 97.5685 12.292L99.0565 14.164ZM96.6205 10.432V11.68H96.7885C97.4125 11.68 97.7245 11.428 97.7245 11.044C97.7245 10.468 97.1245 10.432 96.8125 10.432H96.6205Z" fill="#41BFC4"/>
</g>
<defs>
<clipPath id="clip0_120_5">
<rect width="102" height="40" fill="white"/>
</clipPath>
</defs>
</svg>
