<svg width="118" height="103" viewBox="0 0 118 103" fill="none" xmlns="http://www.w3.org/2000/svg">
<g opacity="0.2">
<path d="M92.0979 92.0986C88.4328 92.917 84.6073 92.631 81.1046 91.2765C77.602 89.9221 74.5793 87.5601 72.4182 84.4888C70.2572 81.4174 69.0548 77.7746 68.9629 74.0203C68.8709 70.266 69.8936 66.5687 71.9018 63.3953C73.9099 60.2219 76.8134 57.7148 80.2456 56.1906C83.6778 54.6664 87.4847 54.1935 91.1855 54.8315C94.8863 55.4696 98.315 57.1901 101.039 59.7757C103.762 62.3612 105.658 65.6959 106.488 69.3586C107.04 71.7968 107.106 74.32 106.681 76.7836C106.256 79.2472 105.349 81.6027 104.013 83.7152C102.676 85.8277 100.935 87.6556 98.8907 89.0942C96.8461 90.5328 94.5378 91.5538 92.0979 92.0986ZM73.7879 22.3186C73.1044 20.9374 72.8458 19.3846 73.045 17.8564C73.2442 16.3283 73.8922 14.8936 74.9069 13.7338C75.9217 12.574 77.2576 11.7412 78.7457 11.3408C80.2339 10.9405 81.8073 10.9904 83.267 11.4845C84.7267 11.9785 86.0071 12.8944 86.9462 14.1163C87.8853 15.3381 88.4409 16.8111 88.5427 18.3488C88.6445 19.8865 88.2879 21.4198 87.5181 22.7548C86.7482 24.0898 85.5997 25.1664 84.2179 25.8486C82.3636 26.7584 80.2242 26.8956 78.2689 26.23C76.3136 25.5645 74.7021 24.1507 73.7879 22.2986M33.1779 57.8486C32.5995 59.8831 31.4306 61.7004 29.8191 63.0703C28.2076 64.4403 26.2258 65.3014 24.1247 65.5447C22.0236 65.7879 19.8975 65.4024 18.0156 64.4369C16.1337 63.4714 14.5805 61.9693 13.5525 60.1207C12.5246 58.2722 12.0682 56.1602 12.241 54.0521C12.4139 51.944 13.2082 49.9346 14.5235 48.2781C15.8388 46.6217 17.6159 45.3926 19.6299 44.7465C21.644 44.1004 23.8045 44.0664 25.8379 44.6486C28.5586 45.4304 30.8587 47.2584 32.2344 49.7325C33.6101 52.2065 33.9494 55.1249 33.1779 57.8486ZM116.568 67.0686C115.56 62.5648 113.502 58.363 110.561 54.8057C107.621 51.2484 103.881 48.4363 99.6479 46.5986C90.4679 41.4886 94.7779 31.0986 96.3879 27.9086C96.5679 27.5986 96.7379 27.2786 96.8979 26.9586C98.4111 23.9308 99.0398 20.5376 98.712 17.1687C98.3842 13.7997 97.1131 10.5914 95.0446 7.91211C92.9761 5.23279 90.1941 3.19101 87.0178 2.02113C83.8415 0.851244 80.3997 0.600674 77.0875 1.29818C73.7753 1.99568 70.7268 3.61298 68.2921 5.96446C65.8573 8.31593 64.135 11.3063 63.3227 14.5922C62.5103 17.8782 62.641 21.3266 63.6997 24.5417C64.7584 27.7567 66.7022 30.6081 69.3079 32.7686C69.6379 33.0486 69.9879 33.3086 70.3079 33.5686C76.9679 39.2286 72.8479 48.0386 69.4679 50.6786C68.4022 51.5498 67.3997 52.4955 66.4679 53.5086C55.1379 63.1186 46.6679 53.5086 44.8579 48.6686C44.7779 48.3786 44.6879 48.0886 44.5979 47.7986C43.1543 43.4189 40.4187 39.5788 36.7511 36.7834C33.0835 33.9881 28.6556 32.3683 24.0499 32.1374C19.4442 31.9064 14.8765 33.075 10.9476 35.4894C7.01875 37.9038 3.91273 41.451 2.03816 45.6642C0.163597 49.8775 -0.391701 54.5595 0.445319 59.0944C1.28234 63.6292 3.47247 67.8045 6.7276 71.071C9.98273 74.3374 14.1504 76.542 18.6823 77.3948C23.2142 78.2475 27.8982 77.7085 32.1179 75.8486C33.2709 75.3345 34.3811 74.7292 35.4379 74.0386C52.9579 65.4886 59.0379 79.8486 60.0279 82.6586L60.1679 83.0886C62.6356 90.1544 67.7086 96.0111 74.3501 99.4616C80.9916 102.912 88.7001 103.696 95.9003 101.653C103.1 99.6101 109.249 94.8946 113.088 88.4702C116.928 82.0457 118.169 74.3975 116.558 67.0886" fill="#262424" fill-opacity="0.3"/>
</g>
</svg>
