<svg width="102" height="40" viewBox="0 0 102 40" fill="none" xmlns="http://www.w3.org/2000/svg">
<g clip-path="url(#clip0_120_5)">
<path d="M10.032 12.296H6.36V26H3.912V12.296H0.24V9.992H10.032V12.296ZM20.0216 26L18.7616 23.102H13.6316L12.3176 26H10.3376L16.3136 13.292L22.0016 26H20.0216ZM14.3876 21.374H18.0236L16.2416 17.306L14.3876 21.374ZM23.5181 13.994H26.1641C26.9021 13.994 27.9281 14.066 28.7921 14.642C29.8001 15.308 30.2861 16.46 30.2861 17.558C30.2861 18.26 30.1061 19.34 29.1161 20.186C28.1621 20.996 27.0641 21.122 26.1821 21.122H25.3541V26H23.5181V13.994ZM25.3541 15.686V19.43H26.1821C27.7661 19.43 28.5221 18.656 28.5221 17.54C28.5221 16.874 28.2521 15.686 26.1641 15.686H25.3541ZM34.0026 13.994V18.674H39.1506V13.994H40.9866V26H39.1506V20.402H34.0026V26H32.1666V13.994H34.0026ZM52.1896 26L50.9296 23.102H45.7996L44.4856 26H42.5056L48.4816 13.292L54.1696 26H52.1896ZM46.5556 21.374H50.1916L48.4096 17.306L46.5556 21.374ZM55.6861 13.994H57.5221V24.272H61.0501V26H55.6861V13.994ZM68.4352 21.446V19.754H73.3852V20.132C73.3852 21.23 73.2772 22.688 72.3232 24.002C71.7112 24.848 70.2712 26.234 67.7872 26.234C65.8792 26.234 64.5292 25.532 63.4852 24.488C62.2252 23.228 61.6492 21.716 61.6492 20.006C61.6492 18.728 61.9912 17.036 63.3592 15.614C64.7992 14.12 66.5452 13.778 67.8952 13.778C69.5152 13.778 70.6492 14.282 71.5492 14.93C72.0892 15.308 72.4852 15.704 72.8632 16.208L71.5672 17.45C70.7932 16.334 69.5692 15.47 67.8952 15.47C65.3572 15.47 63.4852 17.396 63.4852 20.024C63.4852 22.58 65.3392 24.542 67.8412 24.542C69.7672 24.542 71.1352 23.21 71.4232 21.446H68.4352ZM75.69 13.994H77.526V26H75.69V13.994ZM82.2369 26H80.4009V13.184L89.1129 22.31V13.994H90.9489V26.738L82.2369 17.612V26Z" fill="#41BFC4"/>
<path d="M92.8765 12.004C92.8765 9.616 94.6285 7.84 97.0285 7.84C99.4285 7.84 101.18 9.616 101.18 12.004C101.18 14.392 99.4285 16.168 97.0285 16.168C94.6285 16.168 92.8765 14.392 92.8765 12.004ZM100.508 12.004C100.508 10.012 99.0565 8.44 97.0285 8.44C95.0005 8.44 93.5485 10.012 93.5485 12.004C93.5485 14.008 95.0125 15.568 97.0285 15.568C99.0445 15.568 100.508 14.008 100.508 12.004ZM99.0565 14.164H98.0125L96.6205 12.388V14.164H95.7685V9.676H96.9565C98.3845 9.676 98.5645 10.588 98.5645 11.02C98.5645 11.68 98.1685 12.136 97.5685 12.292L99.0565 14.164ZM96.6205 10.432V11.68H96.7885C97.4125 11.68 97.7245 11.428 97.7245 11.044C97.7245 10.468 97.1245 10.432 96.8125 10.432H96.6205Z" fill="#41BFC4"/>
</g>
<defs>
<clipPath id="clip0_120_5">
<rect width="102" height="40" fill="white"/>
</clipPath>
</defs>
</svg>
